# xmcd
#
# Track frame offsets: 
#        150
#        17600
#        35690
#        53705
#        75010
#        91347
#        111460
#        130995
#        150502
#        167127
#        185585
#        200927
#        218222
#        238217
#        255835
#        278225
#
# Disc length: 4039 seconds
#
# Revision: 3
# Processed by: cddbd v1.5.2PL0 Copyright (c) Steve Scherf et al.
# Submitted via: ExactAudioCopy v1.3
#
DISCID=da0fc510
DTITLE=Various Artist - LaFace Records - The Platinum Collection
DYEAR=2000
DGENRE=R&B
TTITLE0=TLC - No Scrubs
TTITLE1=Donell Jones with Left Eye - U Know What's Up
TTITLE2=Outkast - Rosa Parks
TTITLE3=The Tony Rich Project - Nobody Knows
TTITLE4=Usher - You Make Me Wanna...
TTITLE5=Toni Braxton - Un-Break My Heart
TTITLE6=Toni Braxton - You're Makin' Me High
TTITLE7=Az Yet - Last Night
TTITLE8=Usher - Nice and Slow
TTITLE9=TLC - Waterfalls
TTITLE10=Pink - There You Go
TTITLE11=Whitey Houston - I'm Your Baby Tonight
TTITLE12=Toni Braxton - Breathe Again
TTITLE13=TLC - Creep
TTITLE14=Toni Braxton - Another Sad Love Song
TTITLE15=Boyz II Men - End of the Road
EXTD=
EXTT0=
EXTT1=
EXTT2=
EXTT3=
EXTT4=
EXTT5=
EXTT6=
EXTT7=
EXTT8=
EXTT9=
EXTT10=
EXTT11=
EXTT12=
EXTT13=
EXTT14=
EXTT15=
PLAYORDER=
